<svg xmlns="http://www.w3.org/2000/svg" viewBox="0 0 537.67 480"><g id="Capa_2" data-name="Capa 2"><g id="Capa_1-2" data-name="Capa 1"><path d="M92,0c9.08,1.91,16.38,6.17,19.08,15.67,1.25,4.41,1.71,9,2.67,14.33H504c19.62,0,32.71,11.37,33.69,30.74.34,6.5-2.22,13.26-4,19.74-15.48,55.41-30.9,110.85-46.78,166.15-4.56,15.87-14.81,23.28-32.64,23.3q-144,.21-287.95.07h-6.17c2.82,15.1,5.56,29.76,8.41,45h6.25q139.73,0,279.45.07c14.45,0,23,6.56,25,19.34,1.76,11-5.77,22.67-16.77,24.51a75.63,75.63,0,0,1-12.3,1q-146.47.07-292.94.11c-24.48,0-28-9.54-31.23-26.72-5.09-27.44-10.44-54.83-15.65-82.25Q102.61,210.42,95,169.72q-7.29-38.67-14.61-77.33c-2.92-15.52-5.79-31-8.83-47.39H66.45c-13.83,0-27.67.34-41.49-.1C12.5,44.5,4.85,40,1.48,29.05,1,27.38.49,25.68,0,24V21C2.36,16.13,3.78,10.34,7.37,6.67,10.71,3.26,16.36,2.13,21,0Zm31.05,75.19a18,18,0,0,0,0,3c3.25,16.3,6.6,32.58,9.79,48.88,6.08,31.09,12.23,62.15,17.91,93.31.83,4.55,2.78,4.66,6.24,4.66q142.23-.07,284.47,0h5L488.6,75.19Z"/><path d="M433,480c-6.92-2.31-14.2-3.88-20.68-7.07C398.9,466.34,393.12,454.19,391,440,389,426.11,394,414.11,402.92,404c6.71-7.62,16-11.5,26-12.89,14-1.94,26.42,2.16,36.75,11.52,7.5,6.79,11.71,15.88,13.23,25.83,2,13.12-1.68,24.91-9.91,35.31-7.26,9.17-17.12,13.46-28.34,15.3a36.44,36.44,0,0,0-3.65,1Z"/><path d="M163,480c-6.94-2.3-14.26-3.84-20.74-7.06-13.37-6.65-19.18-18.77-21.24-33-2-14,3-25.93,12-36.05,6.83-7.71,16.24-11.6,26.46-12.89,13.79-1.74,26,2.32,36.19,11.55,7.5,6.8,11.72,15.84,13.28,25.76,2.07,13.13-1.65,24.91-9.87,35.33-7.25,9.2-17.09,13.53-28.32,15.34-1.26.21-2.48.65-3.71,1Z"/></g></g></svg>