<svg xmlns="http://www.w3.org/2000/svg" viewBox="0 0 542.51 482.83"><defs><style>.cls-1{fill:#389393;}.cls-2{fill:#fa7f72;}.cls-3{fill:#3f7fc8;}</style></defs><g id="Capa_2" data-name="Capa 2"><g id="Capa_1-2" data-name="Capa 1"><polygon class="cls-1" points="428.88 91.31 267.23 252.37 267.23 376.25 345.79 453.47 358.88 441.38 287.37 368.19 287.71 260.43 441.04 104.59 428.88 91.31"/><path class="cls-1" d="M28.2,50.94a28.2,28.2,0,1,0,28.2,28.2h0A28.22,28.22,0,0,0,28.2,50.94Zm0,40.37A12.17,12.17,0,1,1,40.37,79.14h0A12.17,12.17,0,0,1,28.2,91.31Z"/><path class="cls-1" d="M100.71,63.11a28.2,28.2,0,1,0,28.2,28.2h0A28.22,28.22,0,0,0,100.71,63.11Zm0,40.37a12.17,12.17,0,1,1,12.17-12.17h0a12.17,12.17,0,0,1-12.17,12.17Z"/><path class="cls-1" d="M453.21,50.94a28.2,28.2,0,1,0,28.2,28.2A28.21,28.21,0,0,0,453.21,50.94Zm0,40.37a12.17,12.17,0,1,1,12.17-12.17,12.17,12.17,0,0,1-12.17,12.17Z"/><path class="cls-1" d="M441,124.63a28.2,28.2,0,1,0,28.2,28.2A28.21,28.21,0,0,0,441,124.63ZM441,165a12.17,12.17,0,1,1,12.17-12.17A12.17,12.17,0,0,1,441,165Z"/><path class="cls-1" d="M514.31,112.46a28.2,28.2,0,1,0,28.2,28.2A28.21,28.21,0,0,0,514.31,112.46Zm0,40.37a12.17,12.17,0,1,1,12.17-12.17h0A12.17,12.17,0,0,1,514.31,152.83Z"/><path class="cls-2" d="M163.16,13.85a28.2,28.2,0,1,0,28.2,28.2h0a28.19,28.19,0,0,0-28.18-28.2Zm0,40.37a12.17,12.17,0,1,1,12.17-12.17h0A12.17,12.17,0,0,1,163.16,54.22Z"/><path class="cls-2" d="M93.37,0a28.2,28.2,0,1,0,28.2,28.2A28.21,28.21,0,0,0,93.37,0Zm0,40.37A12.17,12.17,0,1,1,105.54,28.2h0A12.17,12.17,0,0,1,93.37,40.37Z"/><path class="cls-2" d="M379.69,75.28a28.2,28.2,0,1,0,28.2,28.2A28.21,28.21,0,0,0,379.69,75.28Zm0,40.37a12.17,12.17,0,1,1,12.17-12.17,12.17,12.17,0,0,1-12.17,12.17Z"/><polygon class="cls-1" points="40.37 103.48 128.91 191.27 128.91 313.81 146.37 313.81 146.37 185.9 53.65 91.31 40.37 103.48"/><polygon class="cls-1" points="114.95 115.65 183.41 185.9 183.41 275.54 199.75 275.54 199.75 177.51 126.16 103.48 114.95 115.65"/><path class="cls-1" d="M316.91,290.31,427.52,177.58,415.6,165,296.44,280.24v63.11l71.08,75.2h1l.22-.22a5,5,0,0,1,.67-.54q6.9-6.92,13.81-13.81l-67-65Z"/><polygon class="cls-1" points="488.87 152.83 329.67 310.12 329.67 321.53 394.13 386.99 407.89 374.24 351.49 318.17 502.14 166.11 488.87 152.83"/><path class="cls-2" d="M369.33,129.71l-13.68-11.49-51.49,50.64L188,55.32,175.33,67.49,290.06,183.22l-16.45,16.11L115,43.89,100.71,55.32,260.18,214.77,233,240l1,25.18L132.94,364.84l-.33,11.08h13.76l85.94-87.29,1,25.18-100,94.67L133,420.9l13.43,1.34,87.29-86.95v22.16l-99.18,94.87a5,5,0,0,1,.73,2.5,114.66,114.66,0,0,0,1.27,12.41H146.7a10.54,10.54,0,0,0,1.2-3.57c.41-2.68,3.78-4.14,6.15-3.49a5.66,5.66,0,0,1,.72.28l96-97-.67-112.8Z"/><polyline class="cls-2" points="146.37 375.92 132.61 375.92 132.61 390.07"/><polyline class="cls-2" points="146.37 422.24 132.87 435.75 132.87 408.48"/><path class="cls-2" d="M147.13,466.37l-11.9-11.09c.29,6.61,1.45,13.11,2.39,19.64C141.33,472.42,145.36,470.46,147.13,466.37Z"/><polygon class="cls-2" points="134.48 452.32 132.49 454.31 132.49 478.35 152.58 458.26 134.48 452.32"/><polygon class="cls-2" points="154.76 460.45 132.39 482.83 132.39 455.28 154.76 460.45"/><polyline class="cls-3" points="368.53 418.55 368.02 419.07 367.52 418.55"/></g></g></svg>