<svg xmlns="http://www.w3.org/2000/svg" viewBox="0 0 514.59 457.69"><g id="Capa_2" data-name="Capa 2"><g id="Capa_1-2" data-name="Capa 1"><path d="M457.16,219.4v7.36c0,53.67.37,107.35-.19,161-.35,33.17-20.59,59.93-54.1,67.79a78.93,78.93,0,0,1-17.73,2q-128,.19-256,.08c-35.54,0-63.43-22.57-70.57-57.23a62.34,62.34,0,0,1-1.19-12.34q-.15-81-.12-162v-6.75c-7.24,6-13.5,11.11-19.6,16.37C28.47,243.63,18,245,9.38,239.28-2.45,231.39-3.24,214.41,7.87,205Q67.2,154.89,126.56,104.83q50.16-42.4,100.23-84.92c5.59-4.73,11.13-9.54,16.91-14,10.3-8,18.69-7.86,28.7.62q40.2,34.07,80.26,68.3,30,25.55,60.12,51.05a18.26,18.26,0,0,0,2.29,1.27c.1-2.26.25-4,.25-5.71,0-23.66-.05-47.33,0-71,0-10.55,5.82-18.34,15.45-21.31,8.66-2.67,19.64,1.8,23.36,10.21A33.29,33.29,0,0,1,457,52.21q.33,53.25,0,106.51c0,3.78,1.36,6,4.15,8.32,15.53,12.82,31,25.69,46.27,38.84a21.09,21.09,0,0,1,2.26,29.29c-6.61,7.87-16.61,11.09-27.58,3.65-6.59-4.47-12.6-9.78-18.87-14.71C461.61,222.8,459.93,221.53,457.16,219.4ZM343,415.23c15.15,0,29.45.12,43.75-.09a33.61,33.61,0,0,0,10.65-1.92c11.28-4,17.82-14.5,17.88-28.34.08-20.17,0-40.34,0-60.51q0-68.26-.13-136.52c0-2.19-.87-5.07-2.4-6.44-10.55-9.42-21.36-18.56-32.13-27.74q-54-46-107.93-92c-5.15-4.38-10.38-8.67-15.58-13-12,10.12-23.56,19.86-35.07,29.69q-59.44,50.76-118.92,101.49a10.33,10.33,0,0,0-4.08,8.86q.18,60,.07,120c0,25.17.06,50.34-.09,75.51-.12,18.42,12,30.85,27.46,30.82,11,0,22,.39,33,.57,3.78.06,7.57,0,11.9,0v-6.52q0-63,.07-126a50.73,50.73,0,0,1,1.63-13.29c4.42-15.89,17.65-25.91,34.27-26,33.17-.11,66.34.37,99.51-.14,15.73-.24,32,12.89,34.52,26.41A77.27,77.27,0,0,1,343,283.9c.12,41.68.07,83.35.07,125ZM214.42,285.89V415.24H300V285.89Z"/></g></g></svg>