<?xml version="1.0" standalone="no"?>
<!DOCTYPE svg PUBLIC "-//W3C//DTD SVG 20010904//EN"
 "http://www.w3.org/TR/2001/REC-SVG-20010904/DTD/svg10.dtd">
<svg version="1.0" xmlns="http://www.w3.org/2000/svg"
 width="512.000000pt" height="512.000000pt" viewBox="0 0 512.000000 512.000000"
 preserveAspectRatio="xMidYMid meet">

<g transform="translate(0.000000,512.000000) scale(0.100000,-0.100000)"
fill="#000000" stroke="none">
<path d="M2470 4943 c-271 -9 -567 -76 -837 -189 -668 -280 -1193 -886 -1372
-1587 -116 -453 -103 -912 41 -1347 268 -815 957 -1426 1798 -1594 231 -46
582 -56 800 -22 380 58 707 186 1010 394 564 386 928 986 1021 1682 16 120 16
436 0 560 -105 821 -595 1510 -1326 1865 -346 169 -737 250 -1135 238z m1509
-1308 c64 -33 61 18 61 -1077 0 -978 0 -993 -20 -1026 -40 -66 48 -62 -1455
-62 -1503 0 -1415 -4 -1455 62 -20 33 -20 48 -20 1031 0 1092 -3 1039 58 1071
41 23 2788 24 2831 1z"/>
<path d="M2016 2898 c279 -282 516 -519 526 -526 12 -9 23 -10 35 -3 10 5 250
242 533 525 l515 516 -1059 0 -1059 0 509 -512z"/>
<path d="M1330 2574 l0 -659 29 30 c15 17 155 173 310 348 l282 319 -302 306
c-167 169 -306 309 -311 310 -4 2 -8 -292 -8 -654z"/>
<path d="M3481 2920 l-302 -309 282 -318 c155 -175 294 -331 310 -348 l29 -30
0 658 c0 361 -4 657 -8 657 -5 0 -145 -139 -311 -310z"/>
<path d="M1806 2083 l-317 -358 535 -3 c294 -1 778 -1 1075 0 l541 3 -317 358
-317 357 -135 -134 c-164 -161 -196 -180 -306 -180 -110 0 -142 19 -306 181
l-136 134 -317 -358z"/>
</g>
</svg>
